<?xml version="1.0" encoding="UTF-8"?>
<svg xmlns="http://www.w3.org/2000/svg" xmlns:xlink="http://www.w3.org/1999/xlink" width="318pt" height="319pt" viewBox="0 0 318 319" version="1.1">
<defs>
<clipPath id="clip0">
  <rect width="318" height="319"/>
</clipPath>
</defs>
<g id="surface0" clip-path="url(#clip0)">
<path style="fill: none; stroke-width: 0.1; stroke-linecap: butt; stroke-linejoin: miter; stroke: rgb(99.607849%,64.705884%,7.450981%); opacity: 1;stroke-miterlimit: 10;" d="M 0 0 L 318 0 L 318 319 L 0 319 L 0 0 Z M 0 0 " transform="matrix(1,0,0,1,0,0)"/>
<path style="stroke: none; fill-rule: nonzero; fill: rgb(99.607849%,64.705884%,7.450981%); opacity: 1;" d="M 0 0 L 318 0 L 318 319 L 0 319 L 0 0 Z M 0 0 "/>
<path style="fill: none; stroke-width: 0.1; stroke-linecap: butt; stroke-linejoin: miter; stroke: rgb(0%,0%,0%); opacity: 1;stroke-miterlimit: 10;" d="M 104.983841 37.972855 C 120.953201 29.746857 139.206512 26.99707 156.994598 26.903 C 204.035461 25.244736 250.481491 53.890381 270.645279 96.33197 C 275.188812 106.640564 279.524719 117.471878 278.946671 128.974594 C 279.236664 157.622131 278.839355 186.274338 279.012115 214.925446 C 287.27507 215.02211 295.554108 214.916351 303.818176 215.299606 C 298.630447 222.204987 292.403839 228.22464 286.290421 234.292572 C 269.752411 250.5383 253.584915 267.156906 237.00943 283.364441 C 214.432739 260.737747 191.383102 238.544357 169.378815 215.367844 C 178.244873 215.097504 187.116043 215.004578 195.989914 214.918671 C 195.801605 191.599884 196.39093 168.276733 195.905182 144.964462 C 195.352005 126.388382 178.251358 110.62912 159.975708 110.151703 C 143.116608 107.398697 125.751511 117.53157 118.766174 132.839615 C 115.788818 140.856705 115.997101 149.570908 115.891174 157.992874 C 116.073944 198.994034 115.994614 239.995407 115.988556 280.998154 C 88.327301 281.003677 60.667496 281.017456 33.006836 280.991425 C 32.951767 239.326569 33.079544 197.663269 32.931427 155.99971 C 31.592926 125.417511 40.663544 93.471573 61.531113 70.553406 C 72.935303 56.214035 88.315231 45.373825 104.983841 37.972855 Z M 104.983841 37.972855 " transform="matrix(1,0,0,1,0,0)"/>
<path style="stroke: none; fill-rule: nonzero; fill: rgb(0%,0%,0%); opacity: 1;" d="M 104.983841 37.972855 C 120.953201 29.746857 139.206512 26.99707 156.994598 26.903 C 204.035461 25.244736 250.481491 53.890381 270.645279 96.33197 C 275.188812 106.640564 279.524719 117.471878 278.946671 128.974594 C 279.236664 157.622131 278.839355 186.274338 279.012115 214.925446 C 287.27507 215.02211 295.554108 214.916351 303.818176 215.299606 C 298.630447 222.204987 292.403839 228.22464 286.290421 234.292572 C 269.752411 250.5383 253.584915 267.156906 237.00943 283.364441 C 214.432739 260.737747 191.383102 238.544357 169.378815 215.367844 C 178.244873 215.097504 187.116043 215.004578 195.989914 214.918671 C 195.801605 191.599884 196.39093 168.276733 195.905182 144.964462 C 195.352005 126.388382 178.251358 110.62912 159.975708 110.151703 C 143.116608 107.398697 125.751511 117.53157 118.766174 132.839615 C 115.788818 140.856705 115.997101 149.570908 115.891174 157.992874 C 116.073944 198.994034 115.994614 239.995407 115.988556 280.998154 C 88.327301 281.003677 60.667496 281.017456 33.006836 280.991425 C 32.951767 239.326569 33.079544 197.663269 32.931427 155.99971 C 31.592926 125.417511 40.663544 93.471573 61.531113 70.553406 C 72.935303 56.214035 88.315231 45.373825 104.983841 37.972855 Z M 104.983841 37.972855 "/>
</g>
</svg>
